<svg width="34" height="34" viewBox="0 0 34 34" fill="none" xmlns="http://www.w3.org/2000/svg">
<mask id="mask0_141_2092" style="mask-type:alpha" maskUnits="userSpaceOnUse" x="0" y="0" width="34" height="34">
<path d="M17.6668 12.6667C20.8885 12.6667 23.5002 10.055 23.5002 6.83333C23.5002 3.61167 20.8885 1 17.6668 1C14.4452 1 11.8335 3.61167 11.8335 6.83333C11.8335 10.055 14.4452 12.6667 17.6668 12.6667Z" fill="white" stroke="white" stroke-width="2" stroke-linecap="round" stroke-linejoin="round"/>
<path d="M1 31.8333C1 24.4692 7.71583 18.5 16 18.5" stroke="white" stroke-width="2" stroke-linecap="round" stroke-linejoin="round"/>
<path d="M21 22C21 21.1108 26.8333 19.3333 26.8333 19.3333C26.8333 19.3333 32.6667 21.1108 32.6667 22C32.6667 29.1108 26.8333 32.6666 26.8333 32.6666C26.8333 32.6666 21 29.1108 21 22Z" fill="white" stroke="white" stroke-width="2" stroke-linecap="round" stroke-linejoin="round"/>
</mask>
<g mask="url(#mask0_141_2092)">
<path d="M-2.3335 -2.33331H37.6665V37.6667H-2.3335V-2.33331Z" fill="black"/>
</g>
</svg>
