<svg width="30" height="32" viewBox="0 0 30 32" fill="none" xmlns="http://www.w3.org/2000/svg">
<path d="M27.6667 0.166687C28.0866 0.166687 28.4893 0.333502 28.7863 0.630435C29.0832 0.927367 29.25 1.33009 29.25 1.75002V30.25C29.25 30.6699 29.0832 31.0727 28.7863 31.3696C28.4893 31.6665 28.0866 31.8334 27.6667 31.8334H5.5C5.08007 31.8334 4.67735 31.6665 4.38041 31.3696C4.08348 31.0727 3.91667 30.6699 3.91667 30.25V27.0834H0.75V23.9167H3.91667V20.75H0.75V17.5834H3.91667V14.4167H0.75V11.25H3.91667V8.08335H0.75V4.91669H3.91667V1.75002C3.91667 1.33009 4.08348 0.927367 4.38041 0.630435C4.67735 0.333502 5.08007 0.166687 5.5 0.166687H27.6667ZM26.0833 3.33335H7.08333V28.6667H26.0833V3.33335ZM18.1667 9.66669V14.4167H22.9167V17.5834H18.1651L18.1667 22.3334H15L14.9984 17.5834H10.25V14.4167H15V9.66669H18.1667Z" fill="black"/>
</svg>
