<svg width="31" height="35" viewBox="0 0 31 35" fill="none" xmlns="http://www.w3.org/2000/svg">
<path d="M21.6668 0H9.3335C7.63766 0 6.25016 1.3125 6.25016 2.91667V26.25C6.25016 27.8542 7.63766 29.1667 9.3335 29.1667H27.8335C29.5293 29.1667 30.9168 27.8542 30.9168 26.25V8.75L21.6668 0ZM27.8335 26.25H9.3335V2.91667H20.1252V10.2083H27.8335V26.25ZM3.16683 5.83333V32.0833H27.8335V35H3.16683C1.471 35 0.0834961 33.6875 0.0834961 32.0833V5.83333H3.16683ZM12.4168 14.5833V17.5H24.7502V14.5833H12.4168ZM12.4168 20.4167V23.3333H20.1252V20.4167H12.4168Z" fill="black"/>
</svg>
