<svg width="40" height="38" viewBox="0 0 40 38" fill="none" xmlns="http://www.w3.org/2000/svg">
<path d="M14.3988 0C13.0645 0 11.8443 0.71478 11.2451 1.84731L9.85802 4.46925H5.8826C2.63373 4.46925 0 6.97117 0 10.0575V27.9412C0 31.0275 2.63373 33.5294 5.8826 33.5294H17.8714C17.4903 32.8213 17.1794 32.0733 16.9474 31.2941H5.8826C3.93327 31.2941 2.35304 29.7929 2.35304 27.9412V10.0575C2.35304 8.2057 3.93327 6.70454 5.8826 6.70454H10.5835C11.0283 6.70454 11.435 6.46628 11.6347 6.08876L13.3476 2.85107C13.5473 2.47355 13.954 2.23529 14.3988 2.23529H23.2562C23.7018 2.23529 24.1092 2.47452 24.3085 2.8532L26.0099 6.08662C26.2093 6.46532 26.6166 6.70454 27.0622 6.70454H31.766C33.7155 6.70454 35.2955 8.2057 35.2955 10.0575V16.993C36.1377 17.4028 36.9262 17.8978 37.6486 18.4658V10.0575C37.6486 6.97119 35.015 4.46925 31.766 4.46925H27.7896L26.4133 1.85373C25.8154 0.717663 24.5932 0 23.2562 0H14.3988Z" fill="#212121"/>
<path d="M18.8133 8.94116C23.228 8.94116 26.9326 11.8284 27.9493 15.7236C27.1561 15.8077 26.3846 15.96 25.6412 16.1741C24.8462 13.2979 22.0905 11.1765 18.8133 11.1765C14.9146 11.1765 11.7542 14.1788 11.7542 17.8823C11.7542 20.9956 13.9874 23.6133 17.0151 24.3687C16.7897 25.0748 16.6295 25.8077 16.5409 26.5613C12.4405 25.5956 9.40112 22.0761 9.40112 17.8823C9.40112 12.9443 13.6151 8.94116 18.8133 8.94116Z" fill="#212121"/>
<path d="M39.9905 27.9411C39.9905 33.4965 35.2498 38 29.4018 38C23.554 38 18.8132 33.4965 18.8132 27.9411C18.8132 22.3858 23.554 17.8823 29.4018 17.8823C35.2498 17.8823 39.9905 22.3858 39.9905 27.9411ZM30.5783 23.4706C30.5783 22.8534 30.0517 22.3529 29.4018 22.3529C28.7521 22.3529 28.2253 22.8534 28.2253 23.4706V26.8235H24.6957C24.0461 26.8235 23.5192 27.324 23.5192 27.9411C23.5192 28.5583 24.0461 29.0588 24.6957 29.0588H28.2253V32.4117C28.2253 33.0289 28.7521 33.5294 29.4018 33.5294C30.0517 33.5294 30.5783 33.0289 30.5783 32.4117V29.0588H34.1079C34.7578 29.0588 35.2844 28.5583 35.2844 27.9411C35.2844 27.324 34.7578 26.8235 34.1079 26.8235H30.5783V23.4706Z" fill="#212121"/>
</svg>
