<svg width="53" height="40" viewBox="0 0 53 40" fill="none" xmlns="http://www.w3.org/2000/svg">
<g filter="url(#filter0_d_68_286)">
<path d="M38.1521 12.1261C37.5467 11.3224 35.2977 10.769 34.3462 9.3228C33.3947 7.87658 32.6158 4.74461 30.1942 3.54121C27.7725 2.33781 23.1439 2 20.5009 2C17.8579 2 13.2326 2.33038 10.8076 3.53873C8.38267 4.74708 7.60712 7.87658 6.65563 9.32033C5.70414 10.7641 3.4551 11.3224 2.84969 12.1261C2.24427 12.9297 1.81809 18.0101 2.07743 20.5011C2.33678 22.9921 2.82078 24.4656 2.82078 24.4656H9.92388C11.0868 24.4656 11.4651 24.0287 13.8438 23.8049C16.4538 23.5571 19.0142 23.4745 20.5009 23.4745C21.9876 23.4745 24.6306 23.5571 27.2389 23.8049C29.6177 24.0304 30.0083 24.4656 31.1589 24.4656H38.1794C38.1794 24.4656 38.6634 22.9921 38.9227 20.5011C39.1821 18.0101 38.7542 12.9297 38.1521 12.1261Z" stroke="black" stroke-width="2.64302" stroke-linecap="round" stroke-linejoin="round"/>
<path d="M32.3945 24.4656H37.0198V25.7871H32.3945V24.4656Z" stroke="black" stroke-width="2.64302" stroke-linecap="round" stroke-linejoin="round"/>
<path d="M3.98206 24.4656H8.60733V25.7871H3.98206V24.4656Z" stroke="black" stroke-width="2.64302" stroke-linecap="round" stroke-linejoin="round"/>
<path d="M29.4599 18.2843C28.9717 17.7201 27.381 17.2493 25.2748 16.9338C23.1687 16.6183 22.4005 16.5366 20.5174 16.5366C18.6342 16.5366 17.7777 16.672 15.7591 16.9338C13.7405 17.1957 12.2249 17.6615 11.5749 18.2843C10.5995 19.2291 12.0284 20.2896 13.15 20.4185C14.2369 20.5424 16.41 20.497 20.5265 20.497C24.643 20.497 26.816 20.5424 27.903 20.4185C29.0229 20.2822 30.3494 19.2952 29.4599 18.2843Z" fill="black"/>
<path d="M35.002 12.824C34.9974 12.7584 34.9687 12.6968 34.9214 12.6511C34.8742 12.6054 34.8117 12.5787 34.746 12.5762C33.7706 12.5415 32.7803 12.6109 31.0235 13.1288C30.1272 13.3904 29.2855 13.8118 28.539 14.3726C28.3507 14.5196 28.4176 14.9169 28.6538 14.9591C30.1019 15.1289 31.5585 15.2144 33.0165 15.2151C33.8911 15.2151 34.7939 14.9673 34.9616 14.1876C35.047 13.7381 35.0607 13.2778 35.002 12.824Z" fill="black"/>
<path d="M5.99984 12.824C6.00447 12.7584 6.03317 12.6968 6.08043 12.6511C6.12769 12.6054 6.19017 12.5787 6.25588 12.5762C7.23132 12.5415 8.22162 12.6109 9.9784 13.1288C10.8747 13.3904 11.7163 13.8118 12.4628 14.3726C12.6512 14.5196 12.5842 14.9169 12.348 14.9591C10.9 15.1289 9.44335 15.2144 7.9854 15.2151C7.11073 15.2151 6.20798 14.9673 6.04031 14.1876C5.95483 13.7381 5.94117 13.2778 5.99984 12.824Z" fill="black"/>
<path d="M35.0376 8.60754H36.3591" stroke="black" stroke-width="2.64302" stroke-linecap="round" stroke-linejoin="round"/>
<path d="M4.64282 8.60754H5.96433" stroke="black" stroke-width="2.64302" stroke-linecap="round" stroke-linejoin="round"/>
<path d="M5.79907 10.1768C5.79907 10.1768 9.62732 9.1857 20.5008 9.1857C31.3744 9.1857 35.2026 10.1768 35.2026 10.1768" stroke="black" stroke-width="2.64302" stroke-linecap="round" stroke-linejoin="round"/>
</g>
<defs>
<filter id="filter0_d_68_286" x="0.678467" y="0.678497" width="51.5366" height="38.3237" filterUnits="userSpaceOnUse" color-interpolation-filters="sRGB">
<feFlood flood-opacity="0" result="BackgroundImageFix"/>
<feColorMatrix in="SourceAlpha" type="matrix" values="0 0 0 0 0 0 0 0 0 0 0 0 0 0 0 0 0 0 127 0" result="hardAlpha"/>
<feOffset dx="6.4874" dy="6.4874"/>
<feGaussianBlur stdDeviation="2.70308"/>
<feComposite in2="hardAlpha" operator="out"/>
<feColorMatrix type="matrix" values="0 0 0 0 0.737255 0 0 0 0 0.929412 0 0 0 0 0.0352941 0 0 0 0.2 0"/>
<feBlend mode="normal" in2="BackgroundImageFix" result="effect1_dropShadow_68_286"/>
<feBlend mode="normal" in="SourceGraphic" in2="effect1_dropShadow_68_286" result="shape"/>
</filter>
</defs>
</svg>
