<svg width="34" height="33" viewBox="0 0 34 33" fill="none" xmlns="http://www.w3.org/2000/svg">
<path d="M25 17.3333C22.6944 17.3333 20.7294 16.5205 19.105 14.895C17.4794 13.2705 16.6667 11.3055 16.6667 8.99999C16.6667 6.72221 17.4722 4.76388 19.0833 3.12499C20.6944 1.4861 22.6667 0.666656 25 0.666656C27.3056 0.666656 29.2711 1.47888 30.8967 3.10332C32.5211 4.72888 33.3333 6.69443 33.3333 8.99999C33.3333 11.3055 32.5211 13.2705 30.8967 14.895C29.2711 16.5205 27.3056 17.3333 25 17.3333ZM24.1667 9.83332C24.1667 10.0555 24.25 10.25 24.4167 10.4167C24.5833 10.5833 24.7778 10.6667 25 10.6667C25.2222 10.6667 25.4167 10.5833 25.5833 10.4167C25.75 10.25 25.8333 10.0555 25.8333 9.83332V4.83332C25.8333 4.6111 25.75 4.41666 25.5833 4.24999C25.4167 4.08332 25.2222 3.99999 25 3.99999C24.7778 3.99999 24.5833 4.08332 24.4167 4.24999C24.25 4.41666 24.1667 4.6111 24.1667 4.83332V9.83332ZM25 14C25.2222 14 25.4167 13.9167 25.5833 13.75C25.75 13.5833 25.8333 13.3889 25.8333 13.1667C25.8333 12.9444 25.75 12.75 25.5833 12.5833C25.4167 12.4167 25.2222 12.3333 25 12.3333C24.7778 12.3333 24.5833 12.4167 24.4167 12.5833C24.25 12.75 24.1667 12.9444 24.1667 13.1667C24.1667 13.3889 24.25 13.5833 24.4167 13.75C24.5833 13.9167 24.7778 14 25 14ZM7.5 24C8.19444 24 8.78444 23.7567 9.27 23.27C9.75667 22.7844 10 22.1944 10 21.5C10 20.8055 9.75667 20.2155 9.27 19.73C8.78444 19.2433 8.19444 19 7.5 19C6.80556 19 6.21556 19.2433 5.73 19.73C5.24333 20.2155 5 20.8055 5 21.5C5 22.1944 5.24333 22.7844 5.73 23.27C6.21556 23.7567 6.80556 24 7.5 24ZM1.66667 32.3333C1.19444 32.3333 0.798889 32.1733 0.48 31.8533C0.16 31.5344 0 31.1389 0 30.6667V17.3333L3.5 7.33332C3.66667 6.83332 3.96556 6.43055 4.39667 6.12499C4.82667 5.81943 5.30556 5.66666 5.83333 5.66666H13.8333C13.6667 6.19443 13.5417 6.7361 13.4583 7.29166C13.375 7.84721 13.3333 8.41666 13.3333 8.99999H6.41667L4.66667 14H14.4583C15.0972 15.3333 15.9583 16.4928 17.0417 17.4783C18.125 18.465 19.3333 19.25 20.6667 19.8333C20.4444 20.0555 20.2778 20.3122 20.1667 20.6033C20.0556 20.8955 20 21.1944 20 21.5C20 22.1944 20.2433 22.7844 20.73 23.27C21.2156 23.7567 21.8056 24 22.5 24C23.1944 24 23.7844 23.7567 24.27 23.27C24.7567 22.7844 25 22.1944 25 21.5C25 21.3611 24.9933 21.2222 24.98 21.0833C24.9656 20.9444 24.9306 20.8055 24.875 20.6667C25.7639 20.6944 26.6389 20.6111 27.5 20.4167C28.3611 20.2222 29.1944 19.9305 30 19.5417V30.6667C30 31.1389 29.84 31.5344 29.52 31.8533C29.2011 32.1733 28.8056 32.3333 28.3333 32.3333H26.6667C26.1944 32.3333 25.7989 32.1733 25.48 31.8533C25.16 31.5344 25 31.1389 25 30.6667V29H5V30.6667C5 31.1389 4.84056 31.5344 4.52167 31.8533C4.20167 32.1733 3.80556 32.3333 3.33333 32.3333H1.66667Z" fill="black"/>
</svg>
