<svg width="14" height="18" viewBox="0 0 14 18" fill="none" xmlns="http://www.w3.org/2000/svg">
<path d="M11.9091 7.59253H2.09091C1.48842 7.59253 1 8.05817 1 8.63258V15.9129C1 16.4873 1.48842 16.953 2.09091 16.953H11.9091C12.5116 16.953 13 16.4873 13 15.9129V8.63258C13 8.05817 12.5116 7.59253 11.9091 7.59253Z" stroke="#A0A3BD" stroke-width="1.07847" stroke-linecap="round" stroke-linejoin="round"/>
<path d="M3.18042 7.59246V4.99234C3.18042 4.02691 3.58269 3.10102 4.29874 2.41835C5.01479 1.73569 5.98596 1.35217 6.9986 1.35217C8.01125 1.35217 8.98242 1.73569 9.69846 2.41835C10.4145 3.10102 10.8168 4.02691 10.8168 4.99234V7.59246" stroke="#A0A3BD" stroke-width="1.07847" stroke-linecap="round" stroke-linejoin="round"/>
</svg>
