<svg width="50" height="115" viewBox="0 0 50 115" fill="none" xmlns="http://www.w3.org/2000/svg">
<line x1="24.5" y1="44.5" x2="24.5" y2="63.5" stroke="#EFF0F7" stroke-width="3" stroke-linecap="round" stroke-dasharray="6 6"/>
<circle cx="25" cy="25" r="25" fill="#EFF0F7"/>
<circle cx="24.5" cy="24.5" r="7.5" fill="#D7D7D7"/>
<line x1="24.75" y1="62.5027" x2="24.75" y2="42.4876" stroke="#EFF0F6" stroke-width="3" stroke-linecap="round" stroke-dasharray="6 6"/>
<circle cx="25" cy="90" r="25" fill="#BCED09" fill-opacity="0.2"/>
<path d="M24.8398 75.9733C19.0864 75.9733 14.4332 80.6265 14.4332 86.3798C14.4332 94.1847 24.8398 105.706 24.8398 105.706C24.8398 105.706 35.2463 94.1847 35.2463 86.3798C35.2463 80.6265 30.5931 75.9733 24.8398 75.9733ZM24.8398 90.0964C22.7882 90.0964 21.1231 88.4314 21.1231 86.3798C21.1231 84.3283 22.7882 82.6632 24.8398 82.6632C26.8913 82.6632 28.5564 84.3283 28.5564 86.3798C28.5564 88.4314 26.8913 90.0964 24.8398 90.0964Z" fill="#BCED09"/>
</svg>
