<svg width="34" height="30" viewBox="0 0 34 30" fill="none" xmlns="http://www.w3.org/2000/svg">
<path d="M9.49992 20H11.9999V13.3333H9.49992V15.4167H6.99992V17.9167H9.49992V20ZM13.6666 17.9167H26.9999V15.4167H13.6666V17.9167ZM21.9999 13.3333H24.4999V11.25H26.9999V8.75H24.4999V6.66667H21.9999V13.3333ZM6.99992 11.25H20.3333V8.75H6.99992V11.25ZM10.3333 30V26.6667H3.66659C2.74992 26.6667 1.96547 26.3406 1.31325 25.6883C0.659919 25.035 0.333252 24.25 0.333252 23.3333V3.33333C0.333252 2.41667 0.659919 1.63167 1.31325 0.978333C1.96547 0.326111 2.74992 0 3.66659 0H30.3333C31.2499 0 32.0349 0.326111 32.6883 0.978333C33.3405 1.63167 33.6666 2.41667 33.6666 3.33333V23.3333C33.6666 24.25 33.3405 25.035 32.6883 25.6883C32.0349 26.3406 31.2499 26.6667 30.3333 26.6667H23.6666V30H10.3333ZM3.66659 23.3333H30.3333V3.33333H3.66659V23.3333ZM3.66659 23.3333V3.33333V23.3333Z" fill="#A0A3BD"/>
</svg>
