<svg width="20" height="21" viewBox="0 0 20 21" fill="none" xmlns="http://www.w3.org/2000/svg">
<path d="M10.5 20.625C10.2133 20.6247 9.93746 20.5149 9.72896 20.318C9.52046 20.1212 9.39499 19.8522 9.37818 19.5659C9.36138 19.2797 9.45451 18.9978 9.63855 18.7779C9.82259 18.5581 10.0836 18.4167 10.3684 18.3829L10.5 18.375H16.125C16.4006 18.375 16.6665 18.2738 16.8724 18.0907C17.0783 17.9076 17.2099 17.6553 17.2421 17.3816L17.25 17.25L17.25 3.75C17.25 3.47445 17.1488 3.2085 16.9657 3.00258C16.7826 2.79667 16.5303 2.66511 16.2566 2.63288L16.125 2.625H11.0625C10.7758 2.62468 10.5 2.51489 10.2915 2.31805C10.083 2.12121 9.95749 1.85218 9.94068 1.56593C9.92388 1.27968 10.017 0.997824 10.201 0.777939C10.3851 0.558054 10.6461 0.416742 10.9309 0.382875L11.0625 0.375H16.125C16.9859 0.374952 17.8142 0.703865 18.4405 1.29445C19.0669 1.88502 19.4439 2.69262 19.4944 3.552L19.5 3.75V17.25C19.5 18.1109 19.1711 18.9392 18.5806 19.5655C17.99 20.1919 17.1824 20.5689 16.323 20.6194L16.125 20.625H10.5ZM4.07963 14.478L0.898127 11.2954C0.687222 11.0844 0.568741 10.7983 0.568741 10.5C0.568741 10.2017 0.687222 9.91559 0.898127 9.70463L4.07963 6.522C4.29072 6.31105 4.57697 6.1926 4.8754 6.19271C5.17383 6.19281 5.45999 6.31147 5.67094 6.52256C5.88189 6.73366 6.00033 7.01991 6.00023 7.31834C6.00012 7.61677 5.88147 7.90293 5.67038 8.11387L4.40925 9.375H10.5C10.7984 9.375 11.0845 9.49353 11.2955 9.7045C11.5065 9.91548 11.625 10.2016 11.625 10.5C11.625 10.7984 11.5065 11.0845 11.2955 11.2955C11.0845 11.5065 10.7984 11.625 10.5 11.625H4.40925L5.67038 12.8861C5.88147 13.0971 6.00012 13.3832 6.00023 13.6817C6.00033 13.9801 5.88189 14.2663 5.67094 14.4774C5.45999 14.6885 5.17383 14.8072 4.8754 14.8073C4.57697 14.8074 4.29072 14.6889 4.07963 14.478Z" fill="#BCED09"/>
</svg>
