<svg width="26" height="27" viewBox="0 0 26 27" fill="none" xmlns="http://www.w3.org/2000/svg">
<path d="M10.5393 12.1448L1.7298 20.9543C0.756732 21.9273 0.756732 23.5051 1.7298 24.4781C2.70286 25.4512 4.28052 25.4512 5.25359 24.4781L14.0631 15.6687" stroke="white" stroke-width="2" stroke-linecap="round" stroke-linejoin="round"/>
<path d="M19.4383 16.1224L24.2701 20.9542C25.2432 21.9272 25.2432 23.505 24.2701 24.478C23.2971 25.4511 21.7193 25.4511 20.7463 24.478L13.0115 16.7432" stroke="white" stroke-width="2" stroke-linecap="round" stroke-linejoin="round"/>
<path d="M6.40605 6.28572L9.93209 9.81176M6.40605 6.28572L3.76321 7.16668L1.12036 2.76194L2.88225 1.00003L7.28701 3.64288L6.40605 6.28572Z" stroke="white" stroke-width="2" stroke-linecap="round" stroke-linejoin="round"/>
<path d="M10.5392 12.1446C9.4879 9.46229 9.69343 5.94279 11.8606 3.77562C14.0278 1.60844 18.0272 1.13278 20.2296 2.4542L16.4414 6.24242L16.0893 10.1183L19.9651 9.76622L23.7534 5.97799C25.0749 8.18036 24.5992 12.1799 22.432 14.347C20.2648 16.5142 16.7454 16.7198 14.063 15.6684" stroke="white" stroke-width="2" stroke-linecap="round" stroke-linejoin="round"/>
</svg>
