<svg width="91" height="16" viewBox="0 0 91 16" fill="none" xmlns="http://www.w3.org/2000/svg">
<path d="M52.1817 11.9162H49.6784C49.5947 11.9162 49.5339 11.8349 49.5567 11.7537C49.9752 10.3293 50.4114 8.7169 50.7132 6.92939C51.0227 5.08092 51.185 3.37718 51.2534 1.85625C51.256 1.7877 51.3117 1.73438 51.3803 1.73438H58.8196C58.8897 1.73438 58.9465 1.79122 58.9465 1.86133V11.7893C58.9465 11.8594 58.8897 11.9162 58.8196 11.9162H56.3821C56.3119 11.9162 56.2551 11.8594 56.2551 11.7893V4.12114H53.8082C53.7182 5.25277 53.5666 6.46873 53.3179 7.75203C53.0288 9.25523 52.6864 10.6187 52.3009 11.8298C52.2857 11.8807 52.2349 11.9162 52.1817 11.9162Z" fill="#EE2F53"/>
<path d="M0 1.86133C0 1.79122 0.0568399 1.73438 0.126956 1.73438H7.31396C7.40371 1.73438 7.46444 1.82683 7.4296 1.91041L6.53956 4.0436C6.51606 4.09995 6.4623 4.12558 6.41126 4.12051C6.40708 4.12093 6.40284 4.12114 6.39855 4.12114H2.69145V11.7893C2.69145 11.8594 2.63461 11.9162 2.56449 11.9162H0.126956C0.0568399 11.9162 0 11.8594 0 11.7893V1.86133Z" fill="#0066B3"/>
<path d="M72.2344 1.86133C72.2344 1.79122 72.2913 1.73438 72.3614 1.73438H79.5484C79.6379 1.73438 79.699 1.82683 79.6641 1.91041L78.7739 4.0436C78.7506 4.09995 78.6968 4.12558 78.6459 4.12051C78.6415 4.12093 78.6371 4.12114 78.6328 4.12114H74.9259V11.7893C74.9259 11.8594 74.8691 11.9162 74.7986 11.9162H72.3614C72.2913 11.9162 72.2344 11.8594 72.2344 11.7893V1.86133Z" fill="#EE2F53"/>
<path d="M29.0885 1.73438C29.0004 1.73438 28.9392 1.82104 28.9695 1.90287L32.673 11.9178C32.1503 13.0166 31.5698 14.1731 30.9057 15.4623C30.8622 15.5466 30.9228 15.6487 31.0179 15.6487H33.6525C33.7004 15.6487 33.7445 15.6213 33.7661 15.5786C35.7156 11.6115 37.1503 8.09486 39.1116 1.90214C39.1384 1.82027 39.0778 1.73438 38.9916 1.73438H36.5444C36.4876 1.73438 36.4375 1.77304 36.422 1.82754C35.6668 4.47499 34.9706 6.54722 34.1635 8.54432L31.6756 1.81669C31.6573 1.76725 31.6098 1.73438 31.5566 1.73438H29.0885Z" fill="#EE2F53"/>
<path d="M60.5956 1.73438C60.5076 1.73438 60.4463 1.82104 60.4766 1.90287L64.1801 11.9178C63.6575 13.0166 63.0769 14.1731 62.4128 15.4623C62.3693 15.5466 62.4299 15.6487 62.525 15.6487H65.1596C65.2075 15.6487 65.2516 15.6213 65.2732 15.5786C67.2228 11.6115 68.6574 8.09486 70.6188 1.90214C70.6455 1.82027 70.5849 1.73438 70.4987 1.73438H68.0516C67.9948 1.73438 67.9446 1.77304 67.9291 1.82754C67.1739 4.47499 66.4777 6.54722 65.6706 8.54432L63.1827 1.81669C63.1644 1.76725 63.1169 1.73438 63.0637 1.73438H60.5956Z" fill="#EE2F53"/>
<path d="M47.6733 9.513C47.6607 9.48035 47.6355 9.45278 47.6027 9.43773C47.57 9.42267 47.5322 9.42267 47.4995 9.43271C46.9149 9.64849 45.8189 9.82406 45.0555 9.82406C43.3851 9.82406 42.5888 9.37497 42.5888 6.82349C42.5888 4.78379 42.8333 3.82289 45.0555 3.82289C45.6854 3.82289 46.2699 3.91321 47.0132 4.12897C47.0736 4.14654 47.1392 4.11894 47.1669 4.06374C47.444 3.54441 47.7791 2.90967 48.1571 2.13192C48.1747 2.0968 48.1747 2.05665 48.1596 2.02153C48.1445 1.98641 48.1142 1.95881 48.0764 1.94627C47.0989 1.63517 45.9323 1.45453 44.8816 1.45453C41.382 1.45453 39.8224 3.09783 39.8224 6.78586C39.8224 10.5266 41.382 12.195 44.8816 12.195C45.7584 12.195 47.4869 12.0118 48.3208 11.6806C48.3864 11.6531 48.4216 11.5778 48.3964 11.5126L47.6733 9.513Z" fill="#EE2F53"/>
<path d="M27.1961 9.513C27.1834 9.48035 27.1583 9.45278 27.1255 9.43773C27.0927 9.42267 27.055 9.42267 27.0222 9.43271C26.4377 9.64849 25.3417 9.82406 24.5783 9.82406C22.9078 9.82406 22.1116 9.37497 22.1116 6.82349C22.1116 4.78379 22.356 3.82289 24.5783 3.82289C25.2082 3.82289 25.7927 3.91321 26.5359 4.12897C26.5964 4.14654 26.6619 4.11894 26.6896 4.06374C26.9668 3.54441 27.3019 2.90967 27.6798 2.13192C27.6975 2.0968 27.6975 2.05665 27.6823 2.02153C27.6672 1.98641 27.6369 1.95881 27.5992 1.94627C26.6216 1.63517 25.4551 1.45453 24.4044 1.45453C20.9047 1.45453 19.3452 3.09783 19.3452 6.78586C19.3452 10.5266 20.9047 12.195 24.4044 12.195C25.2812 12.195 27.0096 12.0118 27.8436 11.6806C27.9091 11.6531 27.9444 11.5778 27.9191 11.5126L27.1961 9.513Z" fill="#0066B3"/>
<path d="M12.7856 1.45453C9.36417 1.45453 8.03195 2.949 8.03195 6.78542C8.03195 10.6802 9.36417 12.195 12.7856 12.195C16.2344 12.195 17.579 10.6802 17.579 6.78542C17.579 2.949 16.2344 1.45453 12.7856 1.45453ZM12.7856 9.95962C11.2268 9.95962 10.7412 9.52827 10.7412 6.82347C10.7412 3.94363 11.2716 3.68736 12.7856 3.68736C14.3294 3.68736 14.8698 3.94363 14.8698 6.82347C14.8698 9.52827 14.3743 9.95962 12.7856 9.95962Z" fill="#0066B3"/>
<path d="M89.7525 1.73438H87.3168C87.2456 1.73438 87.1896 1.79011 87.1896 1.86106V9.53275C86.6616 9.67966 86.1343 9.75057 85.5401 9.75057C84.063 9.75057 83.6347 9.33508 83.5787 7.60213V1.86106C83.5787 1.79011 83.5227 1.73438 83.4514 1.73438H81.0158C80.9445 1.73438 80.8885 1.79011 80.8885 1.86106V1.87626C80.8885 1.87626 80.8885 7.65028 80.8914 7.65784C80.9496 10.9186 82.1321 12.1955 85.0529 12.1955C86.7583 12.1955 88.6616 11.7623 89.791 11.3316C89.8441 11.3138 89.8769 11.2632 89.8769 11.2074V1.87626V1.86106C89.8798 1.79011 89.8238 1.73438 89.7525 1.73438Z" fill="#EE2F53"/>
</svg>
