<svg width="337" height="219" viewBox="0 0 337 219" fill="none" xmlns="http://www.w3.org/2000/svg">
<rect x="1.5" y="74.5" width="334" height="143" rx="28.5" fill="white" stroke="black" stroke-width="3"/>
<g filter="url(#filter0_d_199_376)">
<circle cx="16" cy="23" r="10" fill="#282828"/>
</g>
<g filter="url(#filter1_d_199_376)">
<circle cx="31" cy="112" r="10" fill="#282828"/>
</g>
<g filter="url(#filter2_d_199_376)">
<circle cx="31" cy="183" r="10" fill="#282828"/>
</g>
<g filter="url(#filter3_d_199_376)">
<circle cx="314" cy="23" r="7.26316" fill="#282828"/>
</g>
<circle cx="314" cy="23" r="22" stroke="#282828" stroke-width="2"/>
<path d="M21 22C20.4477 22 20 22.4477 20 23C20 23.5523 20.4477 24 21 24V22ZM306 24H307V22H306V24ZM24.5625 24C25.1148 24 25.5625 23.5523 25.5625 23C25.5625 22.4477 25.1148 22 24.5625 22V24ZM31.6875 22C31.1352 22 30.6875 22.4477 30.6875 23C30.6875 23.5523 31.1352 24 31.6875 24V22ZM38.8125 24C39.3648 24 39.8125 23.5523 39.8125 23C39.8125 22.4477 39.3648 22 38.8125 22V24ZM45.9375 22C45.3852 22 44.9375 22.4477 44.9375 23C44.9375 23.5523 45.3852 24 45.9375 24V22ZM53.0625 24C53.6148 24 54.0625 23.5523 54.0625 23C54.0625 22.4477 53.6148 22 53.0625 22V24ZM60.1875 22C59.6352 22 59.1875 22.4477 59.1875 23C59.1875 23.5523 59.6352 24 60.1875 24V22ZM67.3125 24C67.8648 24 68.3125 23.5523 68.3125 23C68.3125 22.4477 67.8648 22 67.3125 22V24ZM74.4375 22C73.8852 22 73.4375 22.4477 73.4375 23C73.4375 23.5523 73.8852 24 74.4375 24V22ZM81.5625 24C82.1148 24 82.5625 23.5523 82.5625 23C82.5625 22.4477 82.1148 22 81.5625 22V24ZM88.6875 22C88.1352 22 87.6875 22.4477 87.6875 23C87.6875 23.5523 88.1352 24 88.6875 24V22ZM95.8125 24C96.3648 24 96.8125 23.5523 96.8125 23C96.8125 22.4477 96.3648 22 95.8125 22V24ZM102.938 22C102.385 22 101.938 22.4477 101.938 23C101.938 23.5523 102.385 24 102.938 24V22ZM110.062 24C110.615 24 111.062 23.5523 111.062 23C111.062 22.4477 110.615 22 110.062 22V24ZM117.188 22C116.635 22 116.188 22.4477 116.188 23C116.188 23.5523 116.635 24 117.188 24V22ZM124.312 24C124.865 24 125.312 23.5523 125.312 23C125.312 22.4477 124.865 22 124.312 22V24ZM131.437 22C130.885 22 130.437 22.4477 130.437 23C130.437 23.5523 130.885 24 131.437 24V22ZM138.562 24C139.115 24 139.562 23.5523 139.562 23C139.562 22.4477 139.115 22 138.562 22V24ZM145.688 22C145.135 22 144.688 22.4477 144.688 23C144.688 23.5523 145.135 24 145.688 24V22ZM152.812 24C153.365 24 153.812 23.5523 153.812 23C153.812 22.4477 153.365 22 152.812 22V24ZM159.938 22C159.385 22 158.938 22.4477 158.938 23C158.938 23.5523 159.385 24 159.938 24V22ZM167.062 24C167.615 24 168.062 23.5523 168.062 23C168.062 22.4477 167.615 22 167.062 22V24ZM174.188 22C173.635 22 173.188 22.4477 173.188 23C173.188 23.5523 173.635 24 174.188 24V22ZM181.312 24C181.865 24 182.312 23.5523 182.312 23C182.312 22.4477 181.865 22 181.312 22V24ZM188.437 22C187.885 22 187.437 22.4477 187.437 23C187.437 23.5523 187.885 24 188.437 24V22ZM195.562 24C196.115 24 196.562 23.5523 196.562 23C196.562 22.4477 196.115 22 195.562 22V24ZM202.688 22C202.135 22 201.688 22.4477 201.688 23C201.688 23.5523 202.135 24 202.688 24V22ZM209.812 24C210.365 24 210.812 23.5523 210.812 23C210.812 22.4477 210.365 22 209.812 22V24ZM216.938 22C216.385 22 215.938 22.4477 215.938 23C215.938 23.5523 216.385 24 216.938 24V22ZM224.062 24C224.615 24 225.062 23.5523 225.062 23C225.062 22.4477 224.615 22 224.062 22V24ZM231.188 22C230.635 22 230.188 22.4477 230.188 23C230.188 23.5523 230.635 24 231.188 24V22ZM238.312 24C238.865 24 239.312 23.5523 239.312 23C239.312 22.4477 238.865 22 238.312 22V24ZM245.438 22C244.885 22 244.438 22.4477 244.438 23C244.438 23.5523 244.885 24 245.438 24V22ZM252.562 24C253.115 24 253.562 23.5523 253.562 23C253.562 22.4477 253.115 22 252.562 22V24ZM259.687 22C259.135 22 258.687 22.4477 258.687 23C258.687 23.5523 259.135 24 259.687 24V22ZM266.812 24C267.365 24 267.812 23.5523 267.812 23C267.812 22.4477 267.365 22 266.812 22V24ZM273.937 22C273.385 22 272.937 22.4477 272.937 23C272.937 23.5523 273.385 24 273.937 24V22ZM281.062 24C281.615 24 282.062 23.5523 282.062 23C282.062 22.4477 281.615 22 281.062 22V24ZM288.188 22C287.635 22 287.188 22.4477 287.188 23C287.188 23.5523 287.635 24 288.188 24V22ZM295.312 24C295.865 24 296.312 23.5523 296.312 23C296.312 22.4477 295.865 22 295.312 22V24ZM302.438 22C301.885 22 301.438 22.4477 301.438 23C301.438 23.5523 301.885 24 302.438 24V22ZM21 24H24.5625V22H21V24ZM31.6875 24H38.8125V22H31.6875V24ZM45.9375 24H53.0625V22H45.9375V24ZM60.1875 24H67.3125V22H60.1875V24ZM74.4375 24H81.5625V22H74.4375V24ZM88.6875 24H95.8125V22H88.6875V24ZM102.938 24H110.062V22H102.938V24ZM117.188 24H124.312V22H117.188V24ZM131.437 24H138.562V22H131.437V24ZM145.688 24H152.812V22H145.688V24ZM159.938 24H167.062V22H159.938V24ZM174.188 24H181.312V22H174.188V24ZM188.437 24H195.562V22H188.437V24ZM202.688 24H209.812V22L202.688 22V24ZM216.938 24H224.062V22H216.938V24ZM231.188 24L238.312 24V22L231.188 22V24ZM245.438 24L252.562 24V22H245.438V24ZM259.687 24L266.812 24V22L259.687 22V24ZM273.937 24L281.062 24V22L273.937 22V24ZM288.188 24L295.312 24V22L288.188 22V24ZM302.438 24L306 24V22L302.438 22V24Z" fill="#282828"/>
<path d="M32 112C32 111.448 31.5523 111 31 111C30.4477 111 30 111.448 30 112L32 112ZM30 183L30 184L32 184L32 183L30 183ZM30 115.55C30 116.102 30.4477 116.55 31 116.55C31.5523 116.55 32 116.102 32 115.55L30 115.55ZM32 122.65C32 122.098 31.5523 121.65 31 121.65C30.4477 121.65 30 122.098 30 122.65L32 122.65ZM30 129.75C30 130.302 30.4477 130.75 31 130.75C31.5523 130.75 32 130.302 32 129.75L30 129.75ZM32 136.85C32 136.298 31.5523 135.85 31 135.85C30.4477 135.85 30 136.298 30 136.85L32 136.85ZM30 143.95C30 144.502 30.4477 144.95 31 144.95C31.5523 144.95 32 144.502 32 143.95L30 143.95ZM32 151.05C32 150.498 31.5523 150.05 31 150.05C30.4477 150.05 30 150.498 30 151.05L32 151.05ZM30 158.15C30 158.702 30.4477 159.15 31 159.15C31.5523 159.15 32 158.702 32 158.15L30 158.15ZM32 165.25C32 164.698 31.5523 164.25 31 164.25C30.4477 164.25 30 164.698 30 165.25L32 165.25ZM30 172.35C30 172.902 30.4477 173.35 31 173.35C31.5523 173.35 32 172.902 32 172.35L30 172.35ZM32 179.45C32 178.898 31.5523 178.45 31 178.45C30.4477 178.45 30 178.898 30 179.45L32 179.45ZM30 112L30 115.55L32 115.55L32 112L30 112ZM30 122.65L30 129.75L32 129.75L32 122.65L30 122.65ZM30 136.85L30 143.95L32 143.95L32 136.85L30 136.85ZM30 151.05L30 158.15L32 158.15L32 151.05L30 151.05ZM30 165.25L30 172.35L32 172.35L32 165.25L30 165.25ZM30 179.45L30 183L32 183L32 179.45L30 179.45Z" fill="#282828"/>
<path d="M36.8324 9.4H38.3924C38.453 9.66867 38.57 9.907 38.7434 10.115C39.1334 10.5917 39.688 10.83 40.4074 10.83C41.0054 10.83 41.4777 10.6827 41.8244 10.388C42.1797 10.0847 42.3574 9.712 42.3574 9.27C42.3574 8.76733 42.197 8.373 41.8764 8.087C41.5644 7.79233 41.118 7.645 40.5374 7.645H38.3274V6.345L41.0574 4.395V4.33H37.2874V2.9H43.2674V4.317L40.9274 6.02L40.2774 6.28V6.345L40.4854 6.319C40.7714 6.293 40.9404 6.28 40.9924 6.28C41.807 6.28 42.4874 6.56167 43.0334 7.125C43.5794 7.68833 43.8524 8.40333 43.8524 9.27C43.8524 10.102 43.5317 10.8083 42.8904 11.389C42.249 11.9697 41.4214 12.26 40.4074 12.26C39.064 12.26 38.0717 11.7833 37.4304 10.83C37.153 10.4227 36.9537 9.946 36.8324 9.4ZM44.7035 12V10.57L47.8105 8.373C48.4865 7.88767 48.9718 7.437 49.2665 7.021C49.5611 6.605 49.7085 6.163 49.7085 5.695C49.7085 5.201 49.5568 4.80667 49.2535 4.512C48.9501 4.21733 48.5385 4.07 48.0185 4.07C47.3771 4.07 46.8961 4.33 46.5755 4.85C46.4368 5.07533 46.3328 5.33533 46.2635 5.63H44.7035C44.7815 5.07533 44.9505 4.577 45.2105 4.135C45.8258 3.13833 46.7618 2.64 48.0185 2.64C48.9805 2.64 49.7605 2.926 50.3585 3.498C50.9651 4.06133 51.2685 4.772 51.2685 5.63C51.2685 6.37533 51.0778 7.047 50.6965 7.645C50.3151 8.23433 49.7041 8.81933 48.8635 9.4L47.5635 10.31L46.9785 10.57V10.635L47.7585 10.57H51.2685V12H44.7035ZM56.2146 12V5.37H57.5796V7.97H58.5546L60.5696 5.37H62.1296L59.7246 8.425L62.3246 12H60.6346L58.6196 9.205H57.5796V12H56.2146ZM63.1081 12V5.37H65.0581L66.8131 9.335H67.0731L68.8281 5.37H70.7781V12H69.4131V7.32L69.4261 7.19H69.3611L67.7231 10.83H66.1631L64.5251 7.19H64.4601L64.4731 7.32V12H63.1081Z" fill="black"/>
<path d="M232.478 40.4H234.038C234.099 40.6687 234.216 40.907 234.389 41.115C234.779 41.5917 235.334 41.83 236.053 41.83C236.651 41.83 237.123 41.6827 237.47 41.388C237.825 41.0847 238.003 40.712 238.003 40.27C238.003 39.7673 237.843 39.373 237.522 39.087C237.21 38.7923 236.764 38.645 236.183 38.645H233.973V37.345L236.703 35.395V35.33H232.933V33.9H238.913V35.317L236.573 37.02L235.923 37.28V37.345L236.131 37.319C236.417 37.293 236.586 37.28 236.638 37.28C237.453 37.28 238.133 37.5617 238.679 38.125C239.225 38.6883 239.498 39.4033 239.498 40.27C239.498 41.102 239.177 41.8083 238.536 42.389C237.895 42.9697 237.067 43.26 236.053 43.26C234.71 43.26 233.717 42.7833 233.076 41.83C232.799 41.4227 232.599 40.946 232.478 40.4ZM240.479 36.89C240.479 35.9713 240.808 35.2 241.467 34.576C242.126 33.952 242.966 33.64 243.989 33.64C245.012 33.64 245.852 33.952 246.511 34.576C247.17 35.2 247.499 35.9713 247.499 36.89C247.499 37.7133 247.157 38.6017 246.472 39.555C246.403 39.6503 246.307 39.7803 246.186 39.945C246.065 40.101 245.982 40.2093 245.939 40.27L243.859 43H242.104L244.067 40.439L244.639 39.945V39.88C244.622 39.8887 244.535 39.9233 244.379 39.984C244.154 40.0447 243.872 40.075 243.534 40.075C242.685 40.075 241.961 39.7717 241.363 39.165C240.774 38.5497 240.479 37.7913 240.479 36.89ZM242.572 35.538C242.217 35.8847 242.039 36.3353 242.039 36.89C242.039 37.4447 242.217 37.8997 242.572 38.255C242.927 38.6017 243.4 38.775 243.989 38.775C244.578 38.775 245.051 38.6017 245.406 38.255C245.761 37.8997 245.939 37.4447 245.939 36.89C245.939 36.3353 245.761 35.8847 245.406 35.538C245.051 35.1827 244.578 35.005 243.989 35.005C243.4 35.005 242.927 35.1827 242.572 35.538ZM252.381 43V36.37H254.331L256.086 40.335H256.346L258.101 36.37H260.051V43H258.686V38.32L258.699 38.19H258.634L256.996 41.83H255.436L253.798 38.19H253.733L253.746 38.32V43H252.381ZM261.61 43V36.37H262.975V40.79L262.962 40.92H263.092L266.095 36.37H267.59V43H266.225V38.58L266.238 38.45H266.108L263.105 43H261.61ZM269.151 43V36.37H270.516V39.035H273.766V36.37H275.131V43H273.766V40.27H270.516V43H269.151Z" fill="#282828"/>
<line x1="55.9961" y1="145.5" x2="305.004" y2="145.5" stroke="#BCED09"/>
<path d="M63.2397 106.921H64.879L67.2085 112.961H69.538L71.8674 106.921H73.5067L68.6752 119H67.0359L68.934 114.427H66.1731L63.2397 106.921ZM72.2065 119L74.6223 110.372H78.2459L80.6617 119H79.195L77.2106 111.666H75.6576L73.6732 119H72.2065ZM81.9 118.965C81.7045 118.77 81.6067 118.523 81.6067 118.224C81.6067 117.924 81.7045 117.677 81.9 117.482C82.0956 117.286 82.3429 117.188 82.642 117.188C82.9411 117.188 83.1884 117.286 83.384 117.482C83.5795 117.677 83.6773 117.924 83.6773 118.224C83.6773 118.523 83.5795 118.77 83.384 118.965C83.1884 119.161 82.9411 119.259 82.642 119.259C82.3429 119.259 82.0956 119.161 81.9 118.965ZM91.8432 117.551C90.6583 116.343 90.0659 114.813 90.0659 112.961C90.0659 111.108 90.6583 109.584 91.8432 108.388C93.0396 107.18 94.5466 106.576 96.3641 106.576C98.4003 106.576 100.005 107.312 101.178 108.785C101.696 109.417 102.076 110.148 102.317 110.976H100.764C100.523 110.401 100.218 109.912 99.8498 109.509C98.941 108.532 97.7791 108.043 96.3641 108.043C94.9722 108.043 93.8333 108.497 92.9476 109.406C92.0618 110.315 91.6189 111.5 91.6189 112.961C91.6189 114.422 92.0618 115.606 92.9476 116.515C93.8333 117.424 94.9722 117.878 96.3641 117.878C97.8021 117.878 98.9927 117.349 99.936 116.291C100.316 115.854 100.62 115.319 100.851 114.686H102.404C102.127 115.583 101.725 116.36 101.196 117.016C99.9878 118.569 98.3773 119.345 96.3641 119.345C94.5466 119.345 93.0396 118.747 91.8432 117.551ZM105.04 117.896C104.201 117.044 103.781 115.975 103.781 114.686C103.781 113.398 104.201 112.328 105.04 111.477C105.88 110.625 106.927 110.2 108.181 110.2C109.435 110.2 110.482 110.62 111.321 111.459C112.161 112.299 112.581 113.346 112.581 114.6V115.118H105.161C105.253 115.923 105.581 116.584 106.145 117.102C106.708 117.62 107.387 117.878 108.181 117.878C109.032 117.878 109.763 117.62 110.372 117.102C110.648 116.872 110.867 116.613 111.028 116.325H112.408C112.201 116.866 111.908 117.343 111.528 117.758C110.631 118.701 109.515 119.173 108.181 119.173C106.927 119.173 105.88 118.747 105.04 117.896ZM105.196 113.91H111.114C111.011 113.231 110.694 112.661 110.165 112.201C109.636 111.73 108.975 111.494 108.181 111.494C107.387 111.494 106.72 111.73 106.179 112.201C105.638 112.661 105.311 113.231 105.196 113.91ZM114.476 119V110.372H118.704C119.509 110.372 120.142 110.574 120.602 110.976C121.062 111.379 121.292 111.896 121.292 112.529C121.292 112.817 121.252 113.081 121.171 113.323C121.091 113.553 120.993 113.737 120.878 113.875C120.763 114.002 120.637 114.111 120.498 114.203C120.372 114.284 120.263 114.341 120.171 114.376C120.09 114.399 120.033 114.41 119.998 114.41V114.427C120.033 114.427 120.102 114.445 120.205 114.479C120.309 114.502 120.441 114.565 120.602 114.669C120.775 114.761 120.936 114.876 121.085 115.014C121.235 115.152 121.361 115.353 121.465 115.618C121.58 115.883 121.637 116.176 121.637 116.498C121.637 117.246 121.379 117.85 120.861 118.31C120.355 118.77 119.641 119 118.721 119H114.476ZM115.857 113.91H118.618C119.48 113.91 119.912 113.536 119.912 112.788C119.912 112.04 119.48 111.666 118.618 111.666H115.857V113.91ZM115.857 117.706H118.704C119.21 117.706 119.595 117.591 119.86 117.361C120.125 117.131 120.257 116.814 120.257 116.412C120.257 116.009 120.125 115.693 119.86 115.463C119.595 115.233 119.21 115.118 118.704 115.118H115.857V117.706ZM124.284 117.896C123.444 117.044 123.025 115.975 123.025 114.686C123.025 113.398 123.444 112.328 124.284 111.477C125.124 110.625 126.171 110.2 127.425 110.2C128.679 110.2 129.725 110.62 130.565 111.459C131.405 112.299 131.825 113.346 131.825 114.6V115.118H124.405C124.497 115.923 124.825 116.584 125.389 117.102C125.952 117.62 126.631 117.878 127.425 117.878C128.276 117.878 129.006 117.62 129.616 117.102C129.892 116.872 130.111 116.613 130.272 116.325H131.652C131.445 116.866 131.152 117.343 130.772 117.758C129.875 118.701 128.759 119.173 127.425 119.173C126.171 119.173 125.124 118.747 124.284 117.896ZM124.439 113.91H130.358C130.255 113.231 129.938 112.661 129.409 112.201C128.88 111.73 128.218 111.494 127.425 111.494C126.631 111.494 125.964 111.73 125.423 112.201C124.882 112.661 124.555 113.231 124.439 113.91ZM133.72 122.279V110.372H135.101V111.753H135.118L135.29 111.494C135.486 111.195 135.837 110.907 136.343 110.631C136.849 110.344 137.47 110.2 138.207 110.2C139.357 110.2 140.335 110.631 141.14 111.494C141.945 112.345 142.348 113.409 142.348 114.686C142.348 115.963 141.945 117.033 141.14 117.896C140.335 118.747 139.357 119.173 138.207 119.173C137.47 119.173 136.843 119.035 136.326 118.758C135.82 118.471 135.475 118.172 135.29 117.861L135.118 117.62H135.101V122.279H133.72ZM135.929 112.391C135.377 112.989 135.101 113.754 135.101 114.686C135.101 115.618 135.377 116.383 135.929 116.981C136.493 117.579 137.194 117.878 138.034 117.878C138.874 117.878 139.57 117.579 140.122 116.981C140.686 116.383 140.968 115.618 140.968 114.686C140.968 113.754 140.686 112.989 140.122 112.391C139.57 111.793 138.874 111.494 138.034 111.494C137.194 111.494 136.493 111.793 135.929 112.391ZM144.252 119V110.372H145.633V113.91H150.464V110.372H151.845V119H150.464V115.204H145.633V119H144.252ZM154.952 117.896C154.147 117.033 153.744 115.963 153.744 114.686C153.744 113.409 154.147 112.345 154.952 111.494C155.757 110.631 156.735 110.2 157.885 110.2C158.61 110.2 159.22 110.338 159.714 110.614C160.221 110.89 160.589 111.189 160.819 111.511L160.974 111.77H160.991V110.372H162.372V119H160.991V117.62H160.974L160.819 117.861C160.612 118.172 160.255 118.471 159.749 118.758C159.243 119.035 158.622 119.173 157.885 119.173C156.735 119.173 155.757 118.747 154.952 117.896ZM155.953 112.391C155.401 112.989 155.124 113.754 155.124 114.686C155.124 115.618 155.401 116.383 155.953 116.981C156.516 117.579 157.218 117.878 158.058 117.878C158.898 117.878 159.594 117.579 160.146 116.981C160.709 116.383 160.991 115.618 160.991 114.686C160.991 113.754 160.709 112.989 160.146 112.391C159.594 111.793 158.898 111.494 158.058 111.494C157.218 111.494 156.516 111.793 155.953 112.391ZM164.448 119L166.174 115.894C165.886 115.767 165.599 115.583 165.311 115.342C164.736 114.813 164.448 114.134 164.448 113.306C164.448 112.466 164.753 111.77 165.363 111.218C165.973 110.654 166.784 110.372 167.796 110.372H171.696V119H170.315V116.239H167.554L166.036 119H164.448ZM166.329 112.115C165.996 112.414 165.829 112.811 165.829 113.306C165.829 113.8 165.996 114.197 166.329 114.496C166.674 114.795 167.169 114.945 167.813 114.945H170.315V111.666H167.813C167.169 111.666 166.674 111.816 166.329 112.115ZM173.681 118.275C173.681 117.942 173.773 117.677 173.957 117.482C174.152 117.286 174.406 117.188 174.716 117.188C175.406 117.188 175.751 117.706 175.751 118.741C175.751 120.26 175.09 121.065 173.767 121.157V120.467C174.457 120.386 174.802 120.012 174.802 119.345V119.086L174.699 119.138C174.584 119.161 174.503 119.173 174.457 119.173C174.239 119.173 174.055 119.092 173.905 118.931C173.756 118.758 173.681 118.54 173.681 118.275ZM181.709 116.412V114.945L185.936 106.921H187.662L183.434 114.945H188.007V111.839H188.093H189.56V114.945H191.372V116.412H189.56V119H188.007V116.412H181.709ZM193.994 117.568C192.936 116.383 192.406 114.847 192.406 112.961C192.406 111.074 192.936 109.538 193.994 108.353C195.052 107.168 196.335 106.576 197.842 106.576C199.349 106.576 200.631 107.168 201.69 108.353C202.748 109.538 203.277 111.074 203.277 112.961C203.277 114.847 202.748 116.383 201.69 117.568C200.631 118.753 199.349 119.345 197.842 119.345C196.335 119.345 195.052 118.753 193.994 117.568ZM195.046 109.354C194.322 110.217 193.959 111.419 193.959 112.961C193.959 114.502 194.322 115.71 195.046 116.584C195.783 117.447 196.714 117.878 197.842 117.878C198.969 117.878 199.895 117.447 200.62 116.584C201.356 115.71 201.724 114.502 201.724 112.961C201.724 111.419 201.356 110.217 200.62 109.354C199.895 108.48 198.969 108.043 197.842 108.043C196.714 108.043 195.783 108.48 195.046 109.354ZM205.093 115.721H206.646C206.75 116.147 206.928 116.509 207.181 116.809C207.756 117.522 208.585 117.878 209.666 117.878C210.552 117.878 211.259 117.631 211.788 117.136C212.329 116.642 212.599 115.998 212.599 115.204C212.599 114.41 212.329 113.766 211.788 113.271C211.259 112.777 210.552 112.529 209.666 112.529C208.872 112.529 208.188 112.748 207.612 113.185C207.371 113.357 207.164 113.57 206.991 113.823H205.611L206.129 106.921H213.29V108.388H207.423L207.164 111.908V111.925C207.359 111.753 207.578 111.609 207.82 111.494C208.464 111.206 209.137 111.062 209.838 111.062C211.081 111.062 212.11 111.459 212.927 112.253C213.744 113.047 214.152 114.03 214.152 115.204C214.152 116.389 213.732 117.378 212.893 118.172C212.064 118.954 210.989 119.345 209.666 119.345C207.963 119.345 206.692 118.741 205.852 117.533C205.461 116.993 205.208 116.389 205.093 115.721Z" fill="black"/>
<path d="M63.2397 172.921H64.879L67.2085 178.961H69.538L71.8674 172.921H73.5067L68.6752 185H67.0359L68.934 180.427H66.1731L63.2397 172.921ZM72.2065 185L74.6223 176.372H78.2459L80.6617 185H79.195L77.2106 177.666H75.6576L73.6732 185H72.2065ZM81.9 184.965C81.7045 184.77 81.6067 184.523 81.6067 184.224C81.6067 183.924 81.7045 183.677 81.9 183.482C82.0956 183.286 82.3429 183.188 82.642 183.188C82.9411 183.188 83.1884 183.286 83.384 183.482C83.5795 183.677 83.6773 183.924 83.6773 184.224C83.6773 184.523 83.5795 184.77 83.384 184.965C83.1884 185.161 82.9411 185.259 82.642 185.259C82.3429 185.259 82.0956 185.161 81.9 184.965ZM91.8432 183.551C90.6583 182.343 90.0659 180.813 90.0659 178.961C90.0659 177.108 90.6583 175.584 91.8432 174.388C93.0396 173.18 94.5466 172.576 96.3641 172.576C98.4003 172.576 100.005 173.312 101.178 174.785C101.696 175.417 102.076 176.148 102.317 176.976H100.764C100.523 176.401 100.218 175.912 99.8498 175.509C98.941 174.532 97.7791 174.043 96.3641 174.043C94.9722 174.043 93.8333 174.497 92.9476 175.406C92.0618 176.315 91.6189 177.5 91.6189 178.961C91.6189 180.422 92.0618 181.606 92.9476 182.515C93.8333 183.424 94.9722 183.878 96.3641 183.878C97.8021 183.878 98.9927 183.349 99.936 182.291C100.316 181.854 100.62 181.319 100.851 180.686H102.404C102.127 181.583 101.725 182.36 101.196 183.016C99.9878 184.569 98.3773 185.345 96.3641 185.345C94.5466 185.345 93.0396 184.747 91.8432 183.551ZM105.04 183.896C104.201 183.044 103.781 181.975 103.781 180.686C103.781 179.398 104.201 178.328 105.04 177.477C105.88 176.625 106.927 176.2 108.181 176.2C109.435 176.2 110.482 176.62 111.321 177.459C112.161 178.299 112.581 179.346 112.581 180.6V181.118H105.161C105.253 181.923 105.581 182.584 106.145 183.102C106.708 183.62 107.387 183.878 108.181 183.878C109.032 183.878 109.763 183.62 110.372 183.102C110.648 182.872 110.867 182.613 111.028 182.325H112.408C112.201 182.866 111.908 183.343 111.528 183.758C110.631 184.701 109.515 185.173 108.181 185.173C106.927 185.173 105.88 184.747 105.04 183.896ZM105.196 179.91H111.114C111.011 179.231 110.694 178.661 110.165 178.201C109.636 177.73 108.975 177.494 108.181 177.494C107.387 177.494 106.72 177.73 106.179 178.201C105.638 178.661 105.311 179.231 105.196 179.91ZM114.476 185V176.372H118.704C119.509 176.372 120.142 176.574 120.602 176.976C121.062 177.379 121.292 177.896 121.292 178.529C121.292 178.817 121.252 179.081 121.171 179.323C121.091 179.553 120.993 179.737 120.878 179.875C120.763 180.002 120.637 180.111 120.498 180.203C120.372 180.284 120.263 180.341 120.171 180.376C120.09 180.399 120.033 180.41 119.998 180.41V180.427C120.033 180.427 120.102 180.445 120.205 180.479C120.309 180.502 120.441 180.565 120.602 180.669C120.775 180.761 120.936 180.876 121.085 181.014C121.235 181.152 121.361 181.353 121.465 181.618C121.58 181.883 121.637 182.176 121.637 182.498C121.637 183.246 121.379 183.85 120.861 184.31C120.355 184.77 119.641 185 118.721 185H114.476ZM115.857 179.91H118.618C119.48 179.91 119.912 179.536 119.912 178.788C119.912 178.04 119.48 177.666 118.618 177.666H115.857V179.91ZM115.857 183.706H118.704C119.21 183.706 119.595 183.591 119.86 183.361C120.125 183.131 120.257 182.814 120.257 182.412C120.257 182.009 120.125 181.693 119.86 181.463C119.595 181.233 119.21 181.118 118.704 181.118H115.857V183.706ZM124.284 183.896C123.444 183.044 123.025 181.975 123.025 180.686C123.025 179.398 123.444 178.328 124.284 177.477C125.124 176.625 126.171 176.2 127.425 176.2C128.679 176.2 129.725 176.62 130.565 177.459C131.405 178.299 131.825 179.346 131.825 180.6V181.118H124.405C124.497 181.923 124.825 182.584 125.389 183.102C125.952 183.62 126.631 183.878 127.425 183.878C128.276 183.878 129.006 183.62 129.616 183.102C129.892 182.872 130.111 182.613 130.272 182.325H131.652C131.445 182.866 131.152 183.343 130.772 183.758C129.875 184.701 128.759 185.173 127.425 185.173C126.171 185.173 125.124 184.747 124.284 183.896ZM124.439 179.91H130.358C130.255 179.231 129.938 178.661 129.409 178.201C128.88 177.73 128.218 177.494 127.425 177.494C126.631 177.494 125.964 177.73 125.423 178.201C124.882 178.661 124.555 179.231 124.439 179.91ZM133.72 188.279V176.372H135.101V177.753H135.118L135.29 177.494C135.486 177.195 135.837 176.907 136.343 176.631C136.849 176.344 137.47 176.2 138.207 176.2C139.357 176.2 140.335 176.631 141.14 177.494C141.945 178.345 142.348 179.409 142.348 180.686C142.348 181.963 141.945 183.033 141.14 183.896C140.335 184.747 139.357 185.173 138.207 185.173C137.47 185.173 136.843 185.035 136.326 184.758C135.82 184.471 135.475 184.172 135.29 183.861L135.118 183.62H135.101V188.279H133.72ZM135.929 178.391C135.377 178.989 135.101 179.754 135.101 180.686C135.101 181.618 135.377 182.383 135.929 182.981C136.493 183.579 137.194 183.878 138.034 183.878C138.874 183.878 139.57 183.579 140.122 182.981C140.686 182.383 140.968 181.618 140.968 180.686C140.968 179.754 140.686 178.989 140.122 178.391C139.57 177.793 138.874 177.494 138.034 177.494C137.194 177.494 136.493 177.793 135.929 178.391ZM144.252 185V176.372H145.633V179.91H150.464V176.372H151.845V185H150.464V181.204H145.633V185H144.252ZM154.952 183.896C154.147 183.033 153.744 181.963 153.744 180.686C153.744 179.409 154.147 178.345 154.952 177.494C155.757 176.631 156.735 176.2 157.885 176.2C158.61 176.2 159.22 176.338 159.714 176.614C160.221 176.89 160.589 177.189 160.819 177.511L160.974 177.77H160.991V176.372H162.372V185H160.991V183.62H160.974L160.819 183.861C160.612 184.172 160.255 184.471 159.749 184.758C159.243 185.035 158.622 185.173 157.885 185.173C156.735 185.173 155.757 184.747 154.952 183.896ZM155.953 178.391C155.401 178.989 155.124 179.754 155.124 180.686C155.124 181.618 155.401 182.383 155.953 182.981C156.516 183.579 157.218 183.878 158.058 183.878C158.898 183.878 159.594 183.579 160.146 182.981C160.709 182.383 160.991 181.618 160.991 180.686C160.991 179.754 160.709 178.989 160.146 178.391C159.594 177.793 158.898 177.494 158.058 177.494C157.218 177.494 156.516 177.793 155.953 178.391ZM164.448 185L166.174 181.894C165.886 181.767 165.599 181.583 165.311 181.342C164.736 180.813 164.448 180.134 164.448 179.306C164.448 178.466 164.753 177.77 165.363 177.218C165.973 176.654 166.784 176.372 167.796 176.372H171.696V185H170.315V182.239H167.554L166.036 185H164.448ZM166.329 178.115C165.996 178.414 165.829 178.811 165.829 179.306C165.829 179.8 165.996 180.197 166.329 180.496C166.674 180.795 167.169 180.945 167.813 180.945H170.315V177.666H167.813C167.169 177.666 166.674 177.816 166.329 178.115ZM173.681 184.275C173.681 183.942 173.773 183.677 173.957 183.482C174.152 183.286 174.406 183.188 174.716 183.188C175.406 183.188 175.751 183.706 175.751 184.741C175.751 186.26 175.09 187.065 173.767 187.157V186.467C174.457 186.386 174.802 186.012 174.802 185.345V185.086L174.699 185.138C174.584 185.161 174.503 185.173 174.457 185.173C174.239 185.173 174.055 185.092 173.905 184.931C173.756 184.758 173.681 184.54 173.681 184.275ZM181.709 182.412V180.945L185.936 172.921H187.662L183.434 180.945H188.007V177.839H188.093H189.56V180.945H191.372V182.412H189.56V185H188.007V182.412H181.709ZM193.994 183.568C192.936 182.383 192.406 180.847 192.406 178.961C192.406 177.074 192.936 175.538 193.994 174.353C195.052 173.168 196.335 172.576 197.842 172.576C199.349 172.576 200.631 173.168 201.69 174.353C202.748 175.538 203.277 177.074 203.277 178.961C203.277 180.847 202.748 182.383 201.69 183.568C200.631 184.753 199.349 185.345 197.842 185.345C196.335 185.345 195.052 184.753 193.994 183.568ZM195.046 175.354C194.322 176.217 193.959 177.419 193.959 178.961C193.959 180.502 194.322 181.71 195.046 182.584C195.783 183.447 196.714 183.878 197.842 183.878C198.969 183.878 199.895 183.447 200.62 182.584C201.356 181.71 201.724 180.502 201.724 178.961C201.724 177.419 201.356 176.217 200.62 175.354C199.895 174.48 198.969 174.043 197.842 174.043C196.714 174.043 195.783 174.48 195.046 175.354ZM205.093 181.721H206.646C206.75 182.147 206.928 182.509 207.181 182.809C207.756 183.522 208.585 183.878 209.666 183.878C210.552 183.878 211.259 183.631 211.788 183.136C212.329 182.642 212.599 181.998 212.599 181.204C212.599 180.41 212.329 179.766 211.788 179.271C211.259 178.777 210.552 178.529 209.666 178.529C208.872 178.529 208.188 178.748 207.612 179.185C207.371 179.357 207.164 179.57 206.991 179.823H205.611L206.129 172.921H213.29V174.388H207.423L207.164 177.908V177.925C207.359 177.753 207.578 177.609 207.82 177.494C208.464 177.206 209.137 177.062 209.838 177.062C211.081 177.062 212.11 177.459 212.927 178.253C213.744 179.047 214.152 180.03 214.152 181.204C214.152 182.389 213.732 183.378 212.893 184.172C212.064 184.954 210.989 185.345 209.666 185.345C207.963 185.345 206.692 184.741 205.852 183.533C205.461 182.993 205.208 182.389 205.093 181.721Z" fill="black"/>
<defs>
<filter id="filter0_d_199_376" x="2" y="13" width="28" height="28" filterUnits="userSpaceOnUse" color-interpolation-filters="sRGB">
<feFlood flood-opacity="0" result="BackgroundImageFix"/>
<feColorMatrix in="SourceAlpha" type="matrix" values="0 0 0 0 0 0 0 0 0 0 0 0 0 0 0 0 0 0 127 0" result="hardAlpha"/>
<feOffset dy="4"/>
<feGaussianBlur stdDeviation="2"/>
<feComposite in2="hardAlpha" operator="out"/>
<feColorMatrix type="matrix" values="0 0 0 0 0 0 0 0 0 0 0 0 0 0 0 0 0 0 0.25 0"/>
<feBlend mode="normal" in2="BackgroundImageFix" result="effect1_dropShadow_199_376"/>
<feBlend mode="normal" in="SourceGraphic" in2="effect1_dropShadow_199_376" result="shape"/>
</filter>
<filter id="filter1_d_199_376" x="17" y="102" width="28" height="28" filterUnits="userSpaceOnUse" color-interpolation-filters="sRGB">
<feFlood flood-opacity="0" result="BackgroundImageFix"/>
<feColorMatrix in="SourceAlpha" type="matrix" values="0 0 0 0 0 0 0 0 0 0 0 0 0 0 0 0 0 0 127 0" result="hardAlpha"/>
<feOffset dy="4"/>
<feGaussianBlur stdDeviation="2"/>
<feComposite in2="hardAlpha" operator="out"/>
<feColorMatrix type="matrix" values="0 0 0 0 0 0 0 0 0 0 0 0 0 0 0 0 0 0 0.25 0"/>
<feBlend mode="normal" in2="BackgroundImageFix" result="effect1_dropShadow_199_376"/>
<feBlend mode="normal" in="SourceGraphic" in2="effect1_dropShadow_199_376" result="shape"/>
</filter>
<filter id="filter2_d_199_376" x="17" y="173" width="28" height="28" filterUnits="userSpaceOnUse" color-interpolation-filters="sRGB">
<feFlood flood-opacity="0" result="BackgroundImageFix"/>
<feColorMatrix in="SourceAlpha" type="matrix" values="0 0 0 0 0 0 0 0 0 0 0 0 0 0 0 0 0 0 127 0" result="hardAlpha"/>
<feOffset dy="4"/>
<feGaussianBlur stdDeviation="2"/>
<feComposite in2="hardAlpha" operator="out"/>
<feColorMatrix type="matrix" values="0 0 0 0 0 0 0 0 0 0 0 0 0 0 0 0 0 0 0.25 0"/>
<feBlend mode="normal" in2="BackgroundImageFix" result="effect1_dropShadow_199_376"/>
<feBlend mode="normal" in="SourceGraphic" in2="effect1_dropShadow_199_376" result="shape"/>
</filter>
<filter id="filter3_d_199_376" x="301.895" y="15.7368" width="24.2106" height="24.2105" filterUnits="userSpaceOnUse" color-interpolation-filters="sRGB">
<feFlood flood-opacity="0" result="BackgroundImageFix"/>
<feColorMatrix in="SourceAlpha" type="matrix" values="0 0 0 0 0 0 0 0 0 0 0 0 0 0 0 0 0 0 127 0" result="hardAlpha"/>
<feOffset dy="4.84211"/>
<feGaussianBlur stdDeviation="2.42105"/>
<feComposite in2="hardAlpha" operator="out"/>
<feColorMatrix type="matrix" values="0 0 0 0 0 0 0 0 0 0 0 0 0 0 0 0 0 0 0.25 0"/>
<feBlend mode="normal" in2="BackgroundImageFix" result="effect1_dropShadow_199_376"/>
<feBlend mode="normal" in="SourceGraphic" in2="effect1_dropShadow_199_376" result="shape"/>
</filter>
</defs>
</svg>
