<svg width="27" height="30" viewBox="0 0 27 30" fill="none" xmlns="http://www.w3.org/2000/svg">
<path d="M7.77778 4.88889H4.88889C4.12271 4.88889 3.38791 5.19325 2.84614 5.73502C2.30436 6.2768 2 7.0116 2 7.77778V25.1111C2 25.8773 2.30436 26.6121 2.84614 27.1539C3.38791 27.6956 4.12271 28 4.88889 28H22.2222C22.9884 28 23.7232 27.6956 24.265 27.1539C24.8067 26.6121 25.1111 25.8773 25.1111 25.1111V7.77778C25.1111 7.0116 24.8067 6.2768 24.265 5.73502C23.7232 5.19325 22.9884 4.88889 22.2222 4.88889H19.3333M7.77778 4.88889C7.77778 4.12271 8.08214 3.38791 8.62391 2.84614C9.16569 2.30436 9.90049 2 10.6667 2H16.4444C17.2106 2 17.9454 2.30436 18.4872 2.84614C19.029 3.38791 19.3333 4.12271 19.3333 4.88889M7.77778 4.88889C7.77778 5.65507 8.08214 6.38987 8.62391 6.93164C9.16569 7.47341 9.90049 7.77778 10.6667 7.77778H16.4444C17.2106 7.77778 17.9454 7.47341 18.4872 6.93164C19.029 6.38987 19.3333 5.65507 19.3333 4.88889M7.77778 13.5556H19.3333M7.77778 19.3333H13.5556" stroke="#A0A3BD" stroke-width="2.5" stroke-linecap="round" stroke-linejoin="round"/>
</svg>
