<svg width="41" height="28" viewBox="0 0 41 28" fill="none" xmlns="http://www.w3.org/2000/svg">
<path d="M38.4756 12.2167C37.8648 11.4058 35.5956 10.8475 34.6356 9.38833C33.6756 7.92917 32.8898 4.76917 30.4465 3.555C28.0031 2.34083 23.3331 2 20.6665 2C17.9998 2 13.3331 2.33333 10.8865 3.5525C8.43979 4.77167 7.65729 7.92917 6.69729 9.38583C5.73729 10.8425 3.46812 11.4058 2.85729 12.2167C2.24646 13.0275 1.81646 18.1533 2.07812 20.6667C2.33979 23.18 2.82812 24.6667 2.82812 24.6667H9.99479C11.1681 24.6667 11.5498 24.2258 13.9498 24C16.5831 23.75 19.1665 23.6667 20.6665 23.6667C22.1665 23.6667 24.8331 23.75 27.4648 24C29.8648 24.2275 30.259 24.6667 31.4198 24.6667H38.5031C38.5031 24.6667 38.9915 23.18 39.2531 20.6667C39.5148 18.1533 39.0831 13.0275 38.4756 12.2167Z" stroke="#A0A3BD" stroke-width="2.66667" stroke-linecap="round" stroke-linejoin="round"/>
<path d="M32.6665 24.6666H37.3331V26H32.6665V24.6666Z" stroke="#A0A3BD" stroke-width="2.66667" stroke-linecap="round" stroke-linejoin="round"/>
<path d="M3.99968 24.6666H8.66635V26H3.99968V24.6666Z" stroke="#A0A3BD" stroke-width="2.66667" stroke-linecap="round" stroke-linejoin="round"/>
<path d="M29.7055 18.43C29.213 17.8608 27.608 17.3858 25.483 17.0675C23.358 16.7491 22.583 16.6666 20.683 16.6666C18.783 16.6666 17.9188 16.8033 15.8822 17.0675C13.8455 17.3316 12.3163 17.8016 11.6605 18.43C10.6763 19.3833 12.118 20.4533 13.2497 20.5833C14.3463 20.7083 16.5388 20.6625 20.6922 20.6625C24.8455 20.6625 27.038 20.7083 28.1347 20.5833C29.2647 20.4458 30.603 19.45 29.7055 18.43Z" fill="#A0A3BD"/>
<path d="M35.2973 12.9209C35.2927 12.8547 35.2637 12.7926 35.216 12.7465C35.1683 12.7003 35.1053 12.6734 35.039 12.6709C34.0548 12.6359 33.0557 12.7059 31.2832 13.2284C30.3789 13.4924 29.5297 13.9176 28.7765 14.4834C28.5865 14.6317 28.654 15.0326 28.8923 15.0751C30.3533 15.2464 31.823 15.3327 33.294 15.3334C34.1765 15.3334 35.0873 15.0834 35.2565 14.2967C35.3427 13.8432 35.3565 13.3788 35.2973 12.9209Z" fill="#A0A3BD"/>
<path d="M6.03568 12.9209C6.04036 12.8547 6.06931 12.7926 6.11699 12.7465C6.16467 12.7003 6.22771 12.6734 6.29401 12.6709C7.27818 12.6359 8.27735 12.7059 10.0498 13.2284C10.9541 13.4924 11.8033 13.9176 12.5565 14.4834C12.7465 14.6317 12.679 15.0326 12.4407 15.0751C10.9797 15.2464 9.51 15.3327 8.03901 15.3334C7.15651 15.3334 6.24568 15.0834 6.07651 14.2967C5.99027 13.8432 5.97648 13.3788 6.03568 12.9209Z" fill="#A0A3BD"/>
<path d="M35.3332 8.66663H36.6665" stroke="#A0A3BD" stroke-width="2.66667" stroke-linecap="round" stroke-linejoin="round"/>
<path d="M4.66643 8.66663H5.99976" stroke="#A0A3BD" stroke-width="2.66667" stroke-linecap="round" stroke-linejoin="round"/>
<path d="M5.83302 10.2501C5.83302 10.2501 9.69552 9.25012 20.6664 9.25012C31.6372 9.25012 35.4997 10.2501 35.4997 10.2501" stroke="#A0A3BD" stroke-width="2.66667" stroke-linecap="round" stroke-linejoin="round"/>
</svg>
