<svg width="34" height="34" viewBox="0 0 34 34" fill="none" xmlns="http://www.w3.org/2000/svg">
<path d="M25.4999 8.5V8.51417" stroke="#A0A3BD" stroke-width="2.5" stroke-linecap="round" stroke-linejoin="round"/>
<path d="M25.5 18.4167L20.5416 11.3334C20.0643 10.4707 19.8204 9.49835 19.8338 8.5125C19.8473 7.52664 20.1178 6.56136 20.6185 5.71204C21.1193 4.86272 21.833 4.15874 22.6891 3.66966C23.5451 3.18059 24.514 2.92334 25.5 2.92334C26.4859 2.92334 27.4548 3.18059 28.3109 3.66966C29.167 4.15874 29.8807 4.86272 30.3814 5.71204C30.8822 6.56136 31.1526 7.52664 31.1661 8.5125C31.1796 9.49835 30.9356 10.4707 30.4583 11.3334L25.5 18.4167Z" stroke="#A0A3BD" stroke-width="2.5" stroke-linecap="round" stroke-linejoin="round"/>
<path d="M14.875 6.72913L12.75 5.66663L4.24995 9.91663V28.3333L12.75 24.0833L21.25 28.3333L29.75 24.0833V21.25" stroke="#A0A3BD" stroke-width="2.5" stroke-linecap="round" stroke-linejoin="round"/>
<path d="M12.75 5.66663V24.0833" stroke="#A0A3BD" stroke-width="2.5" stroke-linecap="round" stroke-linejoin="round"/>
<path d="M21.25 21.25V28.3333" stroke="#A0A3BD" stroke-width="2.5" stroke-linecap="round" stroke-linejoin="round"/>
</svg>
