<svg width="30" height="33" viewBox="0 0 30 33" fill="none" xmlns="http://www.w3.org/2000/svg">
<path d="M8.54136 4.79937H5.27068C4.40324 4.79937 3.57133 5.14396 2.95796 5.75733C2.34459 6.3707 2 7.20261 2 8.07005V27.6941C2 28.5616 2.34459 29.3935 2.95796 30.0069C3.57133 30.6202 4.40324 30.9648 5.27068 30.9648H24.8948C25.7622 30.9648 26.5941 30.6202 27.2075 30.0069C27.8209 29.3935 28.1654 28.5616 28.1654 27.6941V8.07005C28.1654 7.20261 27.8209 6.3707 27.2075 5.75733C26.5941 5.14396 25.7622 4.79937 24.8948 4.79937H21.6241M8.54136 4.79937C8.54136 3.93193 8.88595 3.10002 9.49932 2.48665C10.1127 1.87328 10.9446 1.52869 11.812 1.52869H18.3534C19.2208 1.52869 20.0528 1.87328 20.6661 2.48665C21.2795 3.10002 21.6241 3.93193 21.6241 4.79937M8.54136 4.79937C8.54136 5.66681 8.88595 6.49872 9.49932 7.11209C10.1127 7.72546 10.9446 8.07005 11.812 8.07005H18.3534C19.2208 8.07005 20.0528 7.72546 20.6661 7.11209C21.2795 6.49872 21.6241 5.66681 21.6241 4.79937M8.54136 14.6114H21.6241M8.54136 21.1528H15.0827" stroke="#282828" stroke-width="2.8304" stroke-linecap="round" stroke-linejoin="round"/>
</svg>
