<svg width="46" height="31" viewBox="0 0 46 31" fill="none" xmlns="http://www.w3.org/2000/svg">
<path d="M43.1158 13.2277C42.4242 12.3097 39.8552 11.6775 38.7683 10.0255C37.6814 8.37353 36.7917 4.7959 34.0255 3.42127C31.2592 2.04664 25.9721 1.66077 22.953 1.66077C19.9339 1.66077 14.6505 2.03815 11.8805 3.41844C9.11045 4.79873 8.22453 8.37353 7.13766 10.0227C6.05079 11.6719 3.48173 12.3097 2.79017 13.2277C2.09861 14.1456 1.61178 19.9489 1.90803 22.7944C2.20428 25.6399 2.75715 27.323 2.75715 27.323H10.871C12.1994 27.323 12.6315 26.8239 15.3486 26.5683C18.33 26.2852 21.2547 26.1909 22.953 26.1909C24.6512 26.1909 27.6703 26.2852 30.6498 26.5683C33.367 26.8258 33.8132 27.323 35.1275 27.323H43.1469C43.1469 27.323 43.6998 25.6399 43.996 22.7944C44.2923 19.9489 43.8036 14.1456 43.1158 13.2277Z" stroke="#282828" stroke-width="3.01909" stroke-linecap="round" stroke-linejoin="round"/>
<path d="M36.5387 27.323H41.8221V28.8325H36.5387V27.323Z" stroke="#282828" stroke-width="3.01909" stroke-linecap="round" stroke-linejoin="round"/>
<path d="M4.0834 27.323H9.36681V28.8325H4.0834V27.323Z" stroke="#282828" stroke-width="3.01909" stroke-linecap="round" stroke-linejoin="round"/>
<path d="M33.1864 20.2621C32.6288 19.6177 30.8117 19.08 28.4059 18.7196C26 18.3591 25.1226 18.2657 22.9715 18.2657C20.8204 18.2657 19.842 18.4205 17.5362 18.7196C15.2304 19.0186 13.4991 19.5507 12.7566 20.2621C11.6424 21.3414 13.2746 22.5529 14.5558 22.7C15.7974 22.8416 18.2796 22.7897 22.9819 22.7897C27.6841 22.7897 30.1664 22.8416 31.408 22.7C32.6873 22.5444 34.2025 21.4169 33.1864 20.2621Z" fill="#282828"/>
<path d="M39.5173 14.025C39.512 13.9501 39.4792 13.8798 39.4253 13.8275C39.3713 13.7753 39.2999 13.7448 39.2248 13.742C38.1106 13.7024 36.9794 13.7816 34.9726 14.3732C33.9488 14.672 32.9874 15.1534 32.1347 15.794C31.9196 15.962 31.996 16.4158 32.2658 16.4639C33.9199 16.6579 35.5838 16.7555 37.2492 16.7564C38.2484 16.7564 39.2796 16.4733 39.4711 15.5827C39.5687 15.0692 39.5843 14.5434 39.5173 14.025Z" fill="#282828"/>
<path d="M6.38859 14.025C6.39388 13.9501 6.42667 13.8798 6.48065 13.8275C6.53463 13.7753 6.606 13.7448 6.68106 13.742C7.7953 13.7024 8.92651 13.7816 10.9333 14.3732C11.9571 14.672 12.9185 15.1534 13.7712 15.794C13.9863 15.962 13.9099 16.4158 13.6401 16.4639C11.986 16.6579 10.3221 16.7555 8.65668 16.7564C7.65755 16.7564 6.62634 16.4733 6.43482 15.5827C6.33717 15.0692 6.32157 14.5434 6.38859 14.025Z" fill="#282828"/>
<path d="M39.5579 9.2085H41.0674" stroke="#282828" stroke-width="3.01909" stroke-linecap="round" stroke-linejoin="round"/>
<path d="M4.83844 9.2085H6.34799" stroke="#282828" stroke-width="3.01909" stroke-linecap="round" stroke-linejoin="round"/>
<path d="M6.15907 11.0012C6.15907 11.0012 10.532 9.86902 22.9528 9.86902C35.3735 9.86902 39.7465 11.0012 39.7465 11.0012" stroke="#282828" stroke-width="3.01909" stroke-linecap="round" stroke-linejoin="round"/>
</svg>
