<svg width="39" height="39" viewBox="0 0 39 39" fill="none" xmlns="http://www.w3.org/2000/svg">
<path d="M29.3766 9.62341V9.63945" stroke="#282828" stroke-width="2.8304" stroke-linecap="round" stroke-linejoin="round"/>
<path d="M29.3767 20.8506L23.7631 12.8312C23.2227 11.8545 22.9465 10.7537 22.9618 9.63751C22.977 8.52136 23.2833 7.42851 23.8502 6.46694C24.4171 5.50537 25.2251 4.70836 26.1943 4.15465C27.1636 3.60094 28.2605 3.30969 29.3767 3.30969C30.493 3.30969 31.5899 3.60094 32.5592 4.15465C33.5284 4.70836 34.3364 5.50537 34.9033 6.46694C35.4702 7.42851 35.7764 8.52136 35.7917 9.63751C35.807 10.7537 35.5308 11.8545 34.9904 12.8312L29.3767 20.8506Z" stroke="#282828" stroke-width="2.8304" stroke-linecap="round" stroke-linejoin="round"/>
<path d="M17.3475 7.61845L14.9416 6.41553L5.31828 11.2272V32.0778L14.9416 27.2661L24.565 32.0778L34.1883 27.2661V24.0583" stroke="#282828" stroke-width="2.8304" stroke-linecap="round" stroke-linejoin="round"/>
<path d="M14.9416 6.41553V27.2661" stroke="#282828" stroke-width="2.8304" stroke-linecap="round" stroke-linejoin="round"/>
<path d="M24.565 24.0583V32.0778" stroke="#282828" stroke-width="2.8304" stroke-linecap="round" stroke-linejoin="round"/>
</svg>
